<svg xmlns="http://www.w3.org/2000/svg" class="" width="30" height="30" viewBox="0 0 30 30"><path d="M27.5 10H26.82C25.862 4.334 20.934 0 15 0C9.066 0 4.137 4.334 3.18 10H2.5C1.83712 10.0005 1.20154 10.2641 0.732818 10.7328C0.264092 11.2015 0.000529668 11.8371 0 12.5V17.5C0 18.879 1.121 20 2.5 20H4C4.26522 20 4.51957 19.8946 4.70711 19.7071C4.89464 19.5196 5 19.2652 5 19V12C5 6.486 9.486 2 15 2C20.514 2 25 6.486 25 12V18C25 23.514 20.514 28 15 28C14.7348 28 14.4804 28.1054 14.2929 28.2929C14.1054 28.4804 14 28.7348 14 29C14 29.2652 14.1054 29.5196 14.2929 29.7071C14.4804 29.8946 14.7348 30 15 30C20.935 30 25.863 25.666 26.82 20H27.5C28.879 20 30 18.879 30 17.5V12.5C30 11.121 28.879 10 27.5 10ZM2 17.5V12.5C2 12.229 2.229 12 2.5 12H3V18H2.5C2.36788 17.9984 2.2416 17.9453 2.14817 17.8518C2.05474 17.7584 2.00156 17.6321 2 17.5ZM28 17.5C28 17.771 27.771 18 27.5 18H27V12H27.5C27.771 12 28 12.229 28 12.5V17.5ZM23 17V12C23 7.589 19.411 4 15 4C10.589 4 7 7.589 7 12V17C7 21.411 10.589 25 15 25C19.411 25 23 21.411 23 17ZM9 17V12C9 8.691 11.691 6 15 6C18.309 6 21 8.691 21 12V17C21 20.309 18.309 23 15 23C11.691 23 9 20.309 9 17Z"></path></svg>