<svg xmlns="http://www.w3.org/2000/svg" width="31" height="30" viewBox="0 0 31 30"><path d="M15.5684 15.1812L9.56316 11.1777C9.41243 11.0772 9.23725 11.0195 9.0563 11.0107C8.87535 11.002 8.69542 11.0425 8.53569 11.128C8.37596 11.2134 8.24242 11.3407 8.14932 11.4961C8.05622 11.6515 8.00705 11.8293 8.00704 12.0104V18.0157C8.00703 18.1805 8.04769 18.3427 8.12543 18.488C8.20318 18.6332 8.31559 18.7571 8.45269 18.8484L14.4535 22.849L14.4827 22.8682C14.6863 22.9953 14.9287 23.045 15.1658 23.0083H15.1671C15.2117 23.0012 15.2559 22.9912 15.2992 22.9783H15.3C15.4027 22.9477 15.4999 22.9007 15.5877 22.8392L21.5737 18.8484C21.7108 18.7571 21.8232 18.6332 21.901 18.488C21.9787 18.3427 22.0194 18.1805 22.0194 18.0157V12.0104C22.0194 11.8457 21.9787 11.6834 21.901 11.5382C21.8232 11.3929 21.7108 11.2691 21.5737 11.1777L15.5684 7.17417C15.4041 7.06444 15.2109 7.00588 15.0132 7.00588C14.8156 7.00588 14.6224 7.06444 14.458 7.17417L11.4561 9.17593C11.319 9.26733 11.2066 9.39116 11.1289 9.53643C11.0511 9.68169 11.0105 9.8439 11.0105 10.0087C11.0105 10.1734 11.0511 10.3356 11.1289 10.4809C11.2066 10.6262 11.319 10.75 11.4561 10.8414L17.4614 14.8449C17.5707 14.9187 17.6935 14.9701 17.8228 14.9962C17.9521 15.0223 18.0852 15.0226 18.2146 14.9971C18.344 14.9716 18.4671 14.9208 18.5768 14.8475C18.6865 14.7743 18.7806 14.6801 18.8538 14.5704C18.927 14.4607 18.9777 14.3375 19.0031 14.2081C19.0286 14.0787 19.0282 13.9456 19.002 13.8163C18.9758 13.687 18.9243 13.5642 18.8505 13.4549C18.7766 13.3457 18.682 13.252 18.5718 13.1794L13.8157 10.0087L15.0132 9.20996L20.0176 12.5459V17.4797L16.0141 20.1491V16.0139C16.0141 15.8492 15.9734 15.687 15.8957 15.5417C15.818 15.3964 15.7055 15.2726 15.5684 15.1812ZM14.0123 20.1491L10.0088 17.4802V13.8806L14.0123 16.5494V20.1491ZM30.0264 15.0131C30.0264 16.9812 29.6388 18.93 28.8856 20.7483C28.1324 22.5666 27.0285 24.2188 25.6368 25.6104C24.2452 27.0021 22.593 28.106 20.7747 28.8592C18.9564 29.6123 17.0076 30 15.0395 30C13.0714 30 11.1225 29.6123 9.30423 28.8592C7.48593 28.106 5.83378 27.0021 4.44212 25.6104C3.05045 24.2188 1.94652 22.5666 1.19336 20.7483C0.440195 18.93 0.0525462 16.9812 0.0525462 15.0131C0.0525462 14.7476 0.157996 14.493 0.345697 14.3053C0.533399 14.1176 0.787977 14.0122 1.05343 14.0122C1.31888 14.0122 1.57345 14.1176 1.76116 14.3053C1.94886 14.493 2.05431 14.7476 2.05431 15.0131C2.05756 18.2016 3.23272 21.2777 5.35625 23.6563C7.47978 26.0348 10.4035 27.5498 13.5713 27.9131C16.7391 28.2764 19.9299 27.4626 22.5368 25.6266C25.1436 23.7905 26.9847 21.0603 27.7097 17.9553C28.4347 14.8503 27.9931 11.5871 26.4689 8.78644C24.9447 5.9858 22.4442 3.84311 19.4431 2.76597C16.442 1.68884 13.1497 1.7524 10.1924 2.94457C7.23513 4.13674 4.81922 6.37434 3.40425 9.23173H5.49709C5.76254 9.23173 6.01711 9.33718 6.20482 9.52488C6.39252 9.71258 6.49797 9.96716 6.49797 10.2326C6.49797 10.4981 6.39252 10.7526 6.20482 10.9403C6.01711 11.128 5.76254 11.2335 5.49709 11.2335H1.00088C0.735431 11.2335 0.480853 11.128 0.293151 10.9403C0.10545 10.7526 0 10.4981 0 10.2326V5.4524C0 5.18695 0.10545 4.93237 0.293151 4.74467C0.480853 4.55697 0.735431 4.45152 1.00088 4.45152C1.26633 4.45152 1.52091 4.55697 1.70861 4.74467C1.89631 4.93237 2.00176 5.18695 2.00176 5.4524V7.61005C3.63165 4.72635 6.17127 2.46411 9.22346 1.1771C12.2757 -0.109912 15.6683 -0.349123 18.8709 0.496875C22.0735 1.34287 24.9054 3.22637 26.9238 5.85284C28.9422 8.4793 30.0333 11.7006 30.0264 15.0131Z"></path></svg>