<svg xmlns="http://www.w3.org/2000/svg" class="" width="31" height="30" viewBox="0 0 31 30"><path d="M30 27.6692C29.6992 27.3684 29.0977 27.3684 28.797 27.6692C28.0451 28.4211 26.6917 28.4211 25.9398 27.6692C25.6391 27.3684 25.3383 27.218 24.8872 26.9173L28.4962 17.2932C28.9474 16.2406 28.4962 15.0376 27.594 14.4361L22.6316 10.8271V5.56391C22.6316 4.96241 22.3308 4.3609 21.8797 3.90977C21.4286 3.45865 20.8271 3.15789 20.2256 3.15789H19.0226V2.40601C19.0226 1.05263 17.9699 0 16.6165 0H13.9098C12.5564 0 11.5038 1.05263 11.5038 2.40601V3.15789H10.3008C9.69925 3.15789 9.09774 3.45865 8.64662 3.90977C7.89474 4.3609 7.74436 4.96241 7.74436 5.56391V10.8271L2.4812 14.4361C1.57895 15.0376 1.2782 16.2406 1.57895 17.2932L5.18797 27.0677C4.88722 27.218 4.58647 27.5188 4.28571 27.6692C3.53383 28.4211 2.18045 28.4211 1.42857 27.6692C1.12782 27.3684 0.526316 27.3684 0.225564 27.6692C-0.075188 27.9699 -0.075188 28.5714 0.225564 28.8722C1.72932 30.3759 4.13534 30.3759 5.6391 28.8722C6.39098 28.1203 7.74436 28.1203 8.49624 28.8722C10 30.3759 12.406 30.3759 13.9098 28.8722C14.6617 28.1203 16.015 28.1203 16.7669 28.8722C18.2707 30.3759 20.6767 30.3759 22.1805 28.8722C22.9323 28.1203 24.2857 28.1203 25.0376 28.8722C25.7895 29.6241 26.6917 29.9248 27.7444 29.9248C28.797 29.9248 29.6992 29.4737 30.4511 28.8722C30.4511 28.5714 30.4511 28.1203 30 27.6692ZM13.1579 2.40601C13.1579 2.10526 13.4586 1.80451 13.7594 1.80451H16.4662C16.7669 1.80451 17.0677 2.10526 17.0677 2.40601V3.15789H13.0075V2.40601H13.1579ZM9.54887 5.56391C9.54887 5.41353 9.54887 5.26316 9.69925 5.11278C9.84962 4.96241 10 4.96241 10.1504 4.96241H20.2256C20.3759 4.96241 20.5263 4.96241 20.6767 5.11278C20.8271 5.26316 20.8271 5.41353 20.8271 5.56391V9.47368L15.7143 6.01504C15.4135 5.86466 14.9624 5.86466 14.6617 6.01504L9.54887 9.62406V5.56391ZM3.53383 15.9398L15.1128 7.96992L26.6917 16.0902C26.8421 16.2406 26.9925 16.5414 26.8421 16.8421L25.6391 20.1504L15.7143 13.2331C15.4135 13.0827 14.9624 13.0827 14.6617 13.2331L4.58647 20L3.38346 16.5414C3.23308 16.391 3.23308 16.0902 3.53383 15.9398ZM20.5263 27.6692C19.7744 28.4211 18.4211 28.4211 17.6692 27.6692C16.1654 26.1654 13.7594 26.1654 12.2556 27.6692C11.5038 28.4211 10.1504 28.4211 9.3985 27.6692C8.64662 26.9173 7.74436 26.6165 6.69173 26.6165L4.88722 21.8045L15.1128 15.0376L25.0376 21.9549L23.2331 26.7669C22.1804 26.6165 21.2782 26.9173 20.5263 27.6692Z"></path></svg>